<svg width="280" height="80" viewBox="0 0 280 80" fill="none" xmlns="http://www.w3.org/2000/svg">
  <!-- Globo gris -->
  <circle cx="30" cy="40" r="28" fill="#999999" stroke="#777777" stroke-width="2"/>
  <path d="M 10 40 Q 30 35 50 40" stroke="#777777" stroke-width="2" fill="none"/>
  <path d="M 10 40 Q 30 45 50 40" stroke="#777777" stroke-width="2" fill="none"/>
  <line x1="30" y1="12" x2="30" y2="68" stroke="#777777" stroke-width="2"/>
  <line x1="2" y1="40" x2="58" y2="40" stroke="#777777" stroke-width="2"/>
  
  <!-- Reloj azul -->
  <circle cx="55" cy="40" r="26" fill="#5DA9DD" stroke="#2C5F8D" stroke-width="3"/>
  <circle cx="55" cy="40" r="22" fill="#A8D8F0" stroke="#2C5F8D" stroke-width="2"/>
  
  <!-- Manecillas del reloj -->
  <line x1="55" y1="40" x2="55" y2="22" stroke="#2C5F8D" stroke-width="3" stroke-linecap="round"/>
  <line x1="55" y1="40" x2="65" y2="35" stroke="#2C5F8D" stroke-width="2.5" stroke-linecap="round"/>
  
  <!-- Marcas del reloj -->
  <rect x="54" y="16" width="2" height="4" fill="#2C5F8D"/>
  <rect x="54" y="60" width="2" height="4" fill="#2C5F8D"/>
  <rect x="75" y="39" width="4" height="2" fill="#2C5F8D"/>
  <rect x="31" y="39" width="4" height="2" fill="#2C5F8D"/>
  
  <!-- Centro del reloj -->
  <circle cx="55" cy="40" r="3" fill="#2C5F8D"/>
  
  <!-- Texto Nordic Globe -->
  <text x="95" y="35" font-family="'Roboto', sans-serif" font-size="24" font-weight="900" fill="#2C5F8D">Nordic</text>
  <text x="175" y="35" font-family="'Roboto', sans-serif" font-size="24" font-weight="900" fill="#333333"> Globe</text>
  
  <!-- Texto SIIVOUSPALVELUT -->
  <text x="95" y="52" font-family="'Roboto', sans-serif" font-size="11" font-weight="500" letter-spacing="2" fill="#666666">SIIVOUSPALVELUT</text>
</svg>
